<mxfile host="app.diagrams.net" modified="2020-11-27T02:20:45.926Z" agent="5.0 (Windows NT 6.1; Win64; x64) AppleWebKit/537.36 (KHTML, like Gecko) Chrome/86.0.4240.198 Safari/537.36" etag="1RnwEEActr8yczD5MOBC" version="13.10.3" type="github">
  <diagram id="0t_YAS4AHB5tevp-D-fF" name="Page-1">
    <mxGraphModel dx="868" dy="425" grid="1" gridSize="10" guides="1" tooltips="1" connect="1" arrows="1" fold="1" page="1" pageScale="1" pageWidth="1169" pageHeight="827" math="0" shadow="0">
      <root>
        <mxCell id="0" />
        <mxCell id="1" parent="0" />
        <mxCell id="zVkOOdTvdT_ERHSbgSoj-1" style="edgeStyle=orthogonalEdgeStyle;rounded=0;orthogonalLoop=1;jettySize=auto;html=1;exitX=0.5;exitY=1;exitDx=0;exitDy=0;entryX=0.5;entryY=0;entryDx=0;entryDy=0;" edge="1" parent="1" source="zVkOOdTvdT_ERHSbgSoj-5" target="zVkOOdTvdT_ERHSbgSoj-6">
          <mxGeometry relative="1" as="geometry" />
        </mxCell>
        <mxCell id="zVkOOdTvdT_ERHSbgSoj-2" style="edgeStyle=orthogonalEdgeStyle;rounded=0;orthogonalLoop=1;jettySize=auto;html=1;exitX=0.5;exitY=1;exitDx=0;exitDy=0;entryX=0.5;entryY=0;entryDx=0;entryDy=0;" edge="1" parent="1" source="zVkOOdTvdT_ERHSbgSoj-5" target="zVkOOdTvdT_ERHSbgSoj-9">
          <mxGeometry relative="1" as="geometry" />
        </mxCell>
        <mxCell id="zVkOOdTvdT_ERHSbgSoj-3" style="edgeStyle=orthogonalEdgeStyle;rounded=0;orthogonalLoop=1;jettySize=auto;html=1;exitX=0.5;exitY=1;exitDx=0;exitDy=0;entryX=0.5;entryY=0;entryDx=0;entryDy=0;" edge="1" parent="1" source="zVkOOdTvdT_ERHSbgSoj-5" target="zVkOOdTvdT_ERHSbgSoj-8">
          <mxGeometry relative="1" as="geometry" />
        </mxCell>
        <mxCell id="zVkOOdTvdT_ERHSbgSoj-4" style="edgeStyle=orthogonalEdgeStyle;rounded=0;orthogonalLoop=1;jettySize=auto;html=1;exitX=0.5;exitY=1;exitDx=0;exitDy=0;entryX=0.5;entryY=0;entryDx=0;entryDy=0;" edge="1" parent="1" source="zVkOOdTvdT_ERHSbgSoj-5" target="zVkOOdTvdT_ERHSbgSoj-7">
          <mxGeometry relative="1" as="geometry" />
        </mxCell>
        <mxCell id="zVkOOdTvdT_ERHSbgSoj-5" value="&lt;b&gt;&lt;font style=&quot;font-size: 18px&quot;&gt;模型参数本地化&lt;/font&gt;&lt;/b&gt;" style="rounded=1;whiteSpace=wrap;html=1;fillColor=#FFCC99;" vertex="1" parent="1">
          <mxGeometry x="360" y="140" width="140" height="60" as="geometry" />
        </mxCell>
        <mxCell id="zVkOOdTvdT_ERHSbgSoj-6" value="&lt;font style=&quot;font-size: 18px&quot;&gt;&lt;b&gt;车辆结构&lt;br&gt;本地化&lt;/b&gt;&lt;/font&gt;" style="rounded=1;whiteSpace=wrap;html=1;fillColor=#FFCCCC;" vertex="1" parent="1">
          <mxGeometry x="120" y="240" width="120" height="60" as="geometry" />
        </mxCell>
        <mxCell id="zVkOOdTvdT_ERHSbgSoj-7" value="&lt;font style=&quot;font-size: 18px&quot;&gt;&lt;b&gt;运行工况&lt;br&gt;本地化&lt;/b&gt;&lt;/font&gt;" style="rounded=1;whiteSpace=wrap;html=1;fillColor=#FFCCCC;" vertex="1" parent="1">
          <mxGeometry x="280" y="240" width="120" height="60" as="geometry" />
        </mxCell>
        <mxCell id="zVkOOdTvdT_ERHSbgSoj-8" value="&lt;font style=&quot;font-size: 18px&quot;&gt;&lt;b&gt;排放因子&lt;br&gt;本地化&lt;/b&gt;&lt;/font&gt;" style="rounded=1;whiteSpace=wrap;html=1;fillColor=#FFCCCC;" vertex="1" parent="1">
          <mxGeometry x="480" y="240" width="120" height="60" as="geometry" />
        </mxCell>
        <mxCell id="zVkOOdTvdT_ERHSbgSoj-9" value="&lt;font style=&quot;font-size: 18px&quot;&gt;&lt;b&gt;其它参数&lt;br&gt;本地化&lt;/b&gt;&lt;/font&gt;" style="rounded=1;whiteSpace=wrap;html=1;fillColor=#FFCCCC;" vertex="1" parent="1">
          <mxGeometry x="640" y="240" width="120" height="60" as="geometry" />
        </mxCell>
      </root>
    </mxGraphModel>
  </diagram>
</mxfile>
